<svg height="480pt" viewBox="0 0 480.00909 480" width="480pt" xmlns="http://www.w3.org/2000/svg"><path d="m8 440.003906c0 17.671875 14.328125 32 32 32h224c17.671875 0 32-14.328125 32-32v-16h-288zm0 0" fill="#9bc9ff"/><path d="m264 8.003906h-224c-17.671875 0-32 14.328125-32 32v16h288v-16c0-17.671875-14.328125-32-32-32zm0 0" fill="#9bc9ff"/><path d="m320 336.003906c0 13.253906-10.746094 24-24 24s-24-10.746094-24-24 10.746094-24 24-24 24 10.746094 24 24zm0 0" fill="#9bc9ff"/><path d="m432 336.003906c0 13.253906-10.746094 24-24 24s-24-10.746094-24-24 10.746094-24 24-24 24 10.746094 24 24zm0 0" fill="#9bc9ff"/><path d="m408.160156 288.003906h-144.160156l-24-128h232l-16.65625 88.847656c-4.257812 22.707032-24.082031 39.15625-47.183594 39.152344zm0 0" fill="#9bc9ff"/><g fill="#1e81ce"><path d="m152 40.003906h48c4.417969 0 8-3.582031 8-8 0-4.417968-3.582031-8-8-8h-48c-4.417969 0-8 3.582032-8 8 0 4.417969 3.582031 8 8 8zm0 0"/><path d="m104 40.003906h16c4.417969 0 8-3.582031 8-8 0-4.417968-3.582031-8-8-8h-16c-4.417969 0-8 3.582032-8 8 0 4.417969 3.582031 8 8 8zm0 0"/><path d="m176 440.003906h-48c-4.417969 0-8 3.582032-8 8 0 4.417969 3.582031 8 8 8h48c4.417969 0 8-3.582031 8-8 0-4.417968-3.582031-8-8-8zm0 0"/><path d="m40 144.003906c4.417969 0 8-3.582031 8-8v-40h40c4.417969 0 8-3.582031 8-8 0-4.417968-3.582031-8-8-8h-48c-4.417969 0-8 3.582032-8 8v48c0 4.417969 3.582031 8 8 8zm0 0"/><path d="m478.160156 154.890625c-1.519531-1.828125-3.78125-2.886719-6.160156-2.886719h-168v-112c-.027344-22.078125-17.917969-39.972656-40-39.99999975h-224c-22.082031.02734375-39.9726562 17.92187475-40 39.99999975v400c.0273438 22.082032 17.917969 39.972656 40 40h224c22.082031-.027344 39.972656-17.917968 40-40v-73.136718c11.195312-2.925782 19.9375-11.667969 22.863281-22.863282h50.273438c4.027343 15.601563 19.03125 25.777344 35.015625 23.746094s27.96875-15.632812 27.96875-31.746094c0-16.113281-11.984375-29.714844-27.96875-31.746094-15.984375-2.027343-30.988282 8.144532-35.015625 23.746094h-50.273438c-2.925781-11.195312-11.667969-19.9375-22.863281-22.863281v-9.136719h104.167969c26.945312-.003906 50.066406-19.195312 55.03125-45.679687l16.664062-88.800781c.457031-2.351563-.171875-4.789063-1.703125-6.632813zm-438.160156-138.886719h224c13.253906 0 24 10.746094 24 24v8h-272v-8c0-13.253906 10.746094-24 24-24zm224 448h-224c-13.253906 0-24-10.746094-24-24v-8h272v8c0 13.253906-10.746094 24-24 24zm144-144c8.835938 0 16 7.164063 16 16 0 8.835938-7.164062 16-16 16s-16-7.164062-16-16c0-8.835937 7.164062-16 16-16zm-96 16c0 8.835938-7.164062 16-16 16s-16-7.164062-16-16c0-8.835937 7.164062-16 16-16s16 7.164063 16 16zm-24-30.863281c-14.113281 3.59375-23.992188 16.300781-23.992188 30.863281s9.878907 27.273438 23.992188 30.863282v49.136718h-272v-352h272v88h-39.199219l-5.710937-33.351562c-.660156-3.839844-3.992188-6.648438-7.890625-6.648438h-35.351563c-4.417968 0-8 3.582032-8 8 0 4.417969 3.582032 8 8 8h28.609375l27.65625 161.351563c.65625 3.84375 3.988281 6.652343 7.886719 6.648437h24zm159.480469-57.769531c-3.546875 18.921875-20.0625 32.632812-39.3125 32.632812h-137.425781l-19.199219-112h210.855469zm0 0"/><path d="m168 200.003906c0 4.417969 3.582031 8 8 8s8-3.582031 8-8c-.042969-23.394531-16.933594-43.359375-40-47.28125v-16.71875h-16v16.71875c-23.085938 3.882813-39.992188 23.871094-39.992188 47.28125s16.90625 43.398438 39.992188 47.28125v63.582032c-14.085938-3.636719-23.945312-16.316407-24-30.863282 0-4.417968-3.582031-8-8-8s-8 3.582032-8 8c.042969 23.398438 16.933594 43.363282 40 47.28125v16.71875h16v-16.71875c23.085938-3.882812 39.992188-23.871094 39.992188-47.28125s-16.90625-43.398437-39.992188-47.28125v-63.582031c14.085938 3.636719 23.945312 16.316406 24 30.863281zm-64 0c.054688-14.546875 9.914062-27.226562 24-30.863281v61.726563c-14.085938-3.636719-23.945312-16.316407-24-30.863282zm64 80c-.054688 14.546875-9.914062 27.226563-24 30.863282v-61.726563c14.085938 3.636719 23.945312 16.316406 24 30.863281zm0 0"/><path d="m88 384.003906h-40v-40c0-4.417968-3.582031-8-8-8s-8 3.582032-8 8v48c0 4.417969 3.582031 8 8 8h48c4.417969 0 8-3.582031 8-8 0-4.417968-3.582031-8-8-8zm0 0"/></g></svg>